<svg xmlns="http://www.w3.org/2000/svg" xmlns:xlink="http://www.w3.org/1999/xlink" preserveAspectRatio="xMidYMid meet" version="1.0" viewBox="229.4 209.7 158.0 190.0" zoomAndPan="magnify" style="fill: rgb(255, 255, 255);" original_string_length="1704"><g id="__id9_stifj6sxfy"><path d="M 377.320312 282.101562 C 376.851562 280.917969 376.199219 279.828125 375.40625 278.859375 C 375.246094 278.667969 375.089844 278.46875 374.917969 278.285156 L 374.289062 277.65625 C 372.136719 275.65625 369.257812 274.421875 366.089844 274.421875 C 364.058594 274.421875 362.167969 274.96875 360.492188 275.859375 C 359.625 276.320312 358.796875 276.84375 358.070312 277.492188 L 357.09375 278.46875 C 356.855469 278.738281 356.664062 279.046875 356.449219 279.335938 C 354.953125 281.339844 354.027344 283.789062 354.027344 286.484375 C 354.027344 289.277344 354.984375 291.839844 356.578125 293.882812 C 356.199219 293.398438 355.863281 292.882812 355.5625 292.34375 L 355.535156 292.363281 C 360.617188 300.847656 363.363281 310.605469 363.363281 320.617188 C 363.363281 350.945312 338.691406 375.617188 308.363281 375.617188 C 278.035156 375.617188 253.363281 350.945312 253.363281 320.617188 C 253.363281 295.046875 270.949219 273.550781 300.628906 267.421875 L 291.492188 304.191406 L 347.757812 253.925781 L 287.492188 209.65625 L 302.5 242.605469 C 302.132812 242.648438 301.78125 242.765625 301.441406 242.925781 C 257.488281 249.558594 229.363281 281.839844 229.363281 320.617188 C 229.363281 364.179688 264.804688 399.617188 308.363281 399.617188 C 351.925781 399.617188 387.363281 364.179688 387.363281 320.617188 C 387.363281 307.046875 383.851562 293.796875 377.320312 282.101562" style="fill: inherit;"/></g></svg>